<?xml version="1.0" encoding="utf-8"?>
<!-- Generator: Adobe Illustrator 25.0.0, SVG Export Plug-In . SVG Version: 6.00 Build 0)  -->
<svg version="1.1" id="Layer_1" xmlns="http://www.w3.org/2000/svg" xmlns:xlink="http://www.w3.org/1999/xlink" x="0px" y="0px"
	 viewBox="0 0 800 800" style="enable-background:new 0 0 800 800;" xml:space="preserve">
<style type="text/css">
	.st0{fill:none;}
	.st1{fill:url(#SVGID_1_);}
	.st2{fill:url(#SVGID_2_);}
	.st3{fill:url(#SVGID_3_);}
	.st4{fill:url(#SVGID_4_);}
	.st5{fill:url(#SVGID_5_);}
	.st6{fill:url(#SVGID_6_);}
	.st7{fill:url(#SVGID_7_);}
	.st8{fill:url(#SVGID_8_);}
	.st9{fill:url(#SVGID_9_);}
	.st10{fill:url(#SVGID_10_);}
	.st11{fill:url(#SVGID_11_);}
	.st12{fill:url(#SVGID_12_);}
	.st13{fill:url(#SVGID_13_);}
	.st14{fill:url(#SVGID_14_);}
	.st15{fill:url(#SVGID_15_);}
	.st16{fill:url(#SVGID_16_);}
	.st17{fill:url(#SVGID_17_);}
</style>
<path class="st0" d="M612,664.5c8.5,0,15.7-6.7,15.7-15.8c0-9.4-7.6-15.9-15.8-15.9c-7.6-0.1-15.6,6-15.8,15.8
	C596,656.5,602.2,664.4,612,664.5z"/>
<path class="st0" d="M694.8,522.2c7.4,0.1,15.9-5.7,16-15.8c0-9.4-7.7-15.9-15.7-15.8c-8.1-0.2-15.8,6.5-15.9,15.6
	C679.1,514.8,686.2,522,694.8,522.2z"/>
<path class="st0" d="M269.5,237.8c-0.5,0-1,0.1-1.8,0.1c0,0,0,0,0,0c0,0,0,0,0,0c0.1,0.7,0.2,1.2,0.3,1.6
	c2.3,8.2,6.1,15.6,12.1,21.7c8.4,8.5,18.7,13,30.5,14.3c6.4,0.7,12.8,0.2,19-1.6c17.9-5.1,29.2-16.9,34.2-34.7
	c0.1-0.4,0.1-0.9,0.1-1.3c0,0,0,0,0,0c0,0,0,0,0,0C361.8,237.7,290.8,237.5,269.5,237.8z"/>
<path class="st0" d="M483.5,717.7c-8.6,0-15.7,7-15.7,15.9c0,9,7.5,15.8,15.8,15.7c7.1,0.2,15.7-5.4,15.8-15.7
	C499.5,724.7,492.4,717.7,483.5,717.7z"/>
<path class="st0" d="M605.6,267.8c-0.3,0-0.6,0.1-1,0.2c0,0.3-0.1,0.6,0,0.9c0.4,1.5,0.9,3.1,1.4,4.6c4,11.3,11,20.1,21.6,26
	c8.6,4.8,17.8,6.8,27.6,6.3c5.6-0.3,11-1.3,16.1-3.3c15.3-6,24.8-17.2,29.2-32.9c0.1-0.5,0.5-1,0-1.6c-0.8-0.2-1.6-0.1-2.5-0.1
	c-30.2,0-60.4,0-90.7,0C606.8,267.8,606.2,267.8,605.6,267.8z"/>
<path class="st0" d="M672.7,234.1c0.4,0,0.8,0,1.2,0c0.3,0,0.7,0.1,0.9-0.4c0-0.2,0-0.4-0.1-0.5c-7.1-10.8-14.1-21.6-21.2-32.4
	c-0.1-0.2-0.3-0.2-0.7-0.5c-0.5,0.7-0.8,1.2-1.2,1.8c-6.4,10-12.7,20-19.1,30c-0.2,0.3-0.5,0.7-0.6,1c-0.1,0.3-0.1,0.6-0.2,1
	c0.8,0,1.5,0.1,2.1,0.1C646.7,234.1,659.7,234.1,672.7,234.1z"/>
<path class="st0" d="M337.3,204.1c0.2,0,0.4-0.1,0.5-0.2c0-0.2,0.1-0.3,0.1-0.4c-7.1-10.9-14.1-21.8-21.2-32.6
	c-0.4-0.6-0.7-1.3-1.3-1.7c-0.1,0-0.2,0-0.2,0c-0.2,0.1-0.3,0.2-0.4,0.4c-7,11.1-14.1,22.1-21.1,33.2c-0.2,0.3-0.3,0.6-0.5,1.1
	c0.4,0.1,0.6,0.3,0.7,0.3C308.3,204.1,322.8,204.1,337.3,204.1z"/>
<path class="st0" d="M326.9,649.3c-4.3,5.2-4.7,12.9-1,18.3c3.3,4.8,7.9,7.2,13.6,7.4c3.3,0.1,6.3-0.9,9.1-2.6c8-5.1,10-16,3.3-23.6
	C345.2,641.3,333.3,641.6,326.9,649.3z"/>
<path class="st0" d="M283.7,503.5c-7.5,0-15.6,5.8-15.7,15.8c-0.1,8.5,6.6,15.8,15.9,15.8c9.1,0,15.7-7.4,15.7-15.8
	C299.7,510.6,292.6,503.4,283.7,503.5z"/>
<linearGradient id="SVGID_1_" gradientUnits="userSpaceOnUse" x1="30.6303" y1="400" x2="1510.9828" y2="400">
	<stop  offset="0" style="stop-color:#293373"/>
	<stop  offset="0.4922" style="stop-color:#3972B8"/>
	<stop  offset="1" style="stop-color:#293373"/>
</linearGradient>
<path class="st1" d="M536.4,422.7c-2.2-8-9.4-13-16.2-13.3c-1.3-0.1-2.7-0.1-4-0.1c-70.5,0-141.1,0-211.6,0c-0.9,0-1.7,0-2.6,0
	c-0.4,0-0.8-0.1-1.1-0.2c-0.4-1.1-0.2-2.2-0.2-3.2c0-77.3,0-154.7,0-232c0-0.5,0-1.1,0-1.6c0-1.4,0.2-2.8,0.6-4.1
	c2.1-7.2,9.6-12.7,16.1-12c33,0,66.1,0,99.1,0c0.7,0,1.3,0,2,0c0.3,0,0.5,0.1,0.7,0.1c0,0.2,0.1,0.4,0.1,0.5
	c-9.6,15.5-19.5,30.8-29.2,46.1c-0.3,0.1-0.5,0.2-0.6,0.2c-1.7,0-3.5,0.1-5.2,0.1c-7.7,0-14.3,5.2-16.3,12.6c-0.5,2-0.7,3.9-0.6,5.9
	c0.2,3.2,0.3,6.4,0.6,9.6c0.6,6.8,2,13.4,4,19.9c4.1,12.9,10.8,24.3,20.6,33.8c15,14.6,33.1,22.1,53.8,23.4
	c8.6,0.6,17.2-0.3,25.6-2.3c12.9-3.2,24.5-9,34.5-17.8c17.1-15,25.7-34.3,28.1-56.6c0.4-3.3,0.4-6.6,0.6-10c0.1-1.3,0-2.5-0.1-3.8
	c-0.7-7.2-6.5-13.3-13.6-14.6c-1.7-0.3-3.4-0.3-5.2-0.3c-2.4,0-2,0.2-3.3-1.8c-15.7-24-31.4-48.1-47.1-72.1
	c-1.1-1.7-2.4-3.2-3.8-4.6c-2.6-2.5-5.7-4.1-9.3-4.8c-1.7-0.3-3.4-0.3-5.2-0.3c-43.4,0-86.9,0-130.3,0c-0.7,0-1.3,0-2,0
	c-1.1,0.1-2.1-0.2-3.1-0.6c-5.7-2.2-9.4-6.3-11-12.3c-0.6-2.1-0.6-4.4-0.6-6.6c0-17.6,0-35.2,0-52.8c0-1.5,0-3.1-0.3-4.6
	c-1.7-7.6-6.3-12.6-13.9-14.4c-7.7-1.8-14,0.8-18.9,7c-2.5,3.2-3.5,7-3.6,11c0,1.9,0,3.9,0,5.8c0,17,0,34,0,51c0,1.1,0,2.3-0.3,3.4
	c-1.1,4.5-3.6,8.1-7.5,10.7c-2.4,1.6-4.9,2.4-7.9,2.4c-43.6-0.1-87.3,0-130.9,0c-1,0-2,0-3,0c-6.9,0.2-12.1,3.3-15.7,9.1
	c-0.5,0.8-0.9,1.6-1.4,2.4c-14.9,23.4-29.8,46.9-44.7,70.3c-0.4,0.6-0.7,1.1-1.2,1.7c-1.3,0-2.7,0-4,0c-7.2,0-13.6,4.7-15.9,11.6
	c-0.7,2.1-0.9,4.2-0.8,6.3c0.1,3,0.2,6,0.5,9c0.5,6.7,1.8,13.3,3.7,19.8c4.4,14.5,11.9,27,23.1,37.2c14.6,13.3,32,20.1,51.5,21.4
	c8.6,0.6,17.2-0.2,25.6-2.3c12.6-3.1,24-8.7,33.9-17.2c16.3-14,25.2-32,28.3-53.1c0.6-3.8,0.9-7.7,1.1-11.5c0.1-2.5,0.2-4.9-0.2-7.4
	c-1.2-6.8-6.6-12.2-13.4-13.5c-1.7-0.3-3.4-0.3-5.2-0.3c-2.4,0-2.1,0.3-3.5-1.9c-9.3-14.2-18.6-28.4-27.9-42.7
	c-0.3-0.4-0.6-0.9-0.8-1.4c-0.1-0.3-0.1-0.6-0.2-1c1,0,1.9,0,2.7,0c32.6,0,65.3,0,97.9,0c0.4,0,0.8,0,1.2,0c0.9-0.1,1.9,0.1,2.7,0.4
	c6.1,2.1,10,6.3,11.7,12.6c0.5,2,0.5,4.1,0.5,6.2c0,76.9,0,153.9,0,230.8c0,0.6,0,1.2,0,1.8c0,0.4-0.1,0.8-0.2,1.1
	c-1.1,0.4-2.2,0.3-3.2,0.3c-68.9,0-137.9,0-206.8,0c-1,0-2,0-3,0c-1.1,0.1-2.1,0.1-3.2,0.3c-9.2,1.8-14.3,9.5-14.8,16.4
	c-0.7,8.9,4.9,17,13.5,19.3c2,0.5,4.1,0.7,6.1,0.7c50,0,100.1,0,150.1,0c0.8,0,1.6,0,2.4,0c0.3,0,0.6,0.1,1,0.1
	c0.3,0.9,0.2,1.8,0.2,2.6c0,16.1,0,32.1,0,48.2c0,0.5,0,0.9,0,1.4c0,0.4-0.1,0.8-0.2,1.1c-1,0.3-1.9,0.2-2.8,0.2
	c-22.6,0-45.2,0-67.7,0c-3.8,0-7.6,0-11.4,0c-1.2,0-2.4-0.2-3.5-0.5c-2.6-0.7-4.4-2.3-6-4.4c-9-12.3-24.1-18.4-39.5-15.3
	C53,484,39.4,504.9,43.9,526.5c5,23.9,30.1,37.5,53,28.6c7.7-3,13.9-8,18.5-15c1.6-2.4,3.8-3.6,6.7-3.6c0.7,0,1.5,0,2.2,0
	c33,0,65.9,0,98.9,0c1.3,0,2.7,0,4-0.3c7.7-1.4,12.6-5.9,14.8-13.4c0.6-1.9,0.6-3.9,0.6-5.9c0-18.4,0-36.8,0-55.2c0-4.3,0-8.7,0-13
	c0-0.8-0.1-1.6,0.3-2.5c0.5,0,1-0.1,1.5-0.1c1.6,0,3.2,0,4.8,0c4.2,0,8.4,0,12.6,0c0.6,0,1.3-0.2,2,0.5c0,0.8,0,1.8,0,2.7
	c0,36.2,0,72.4,0,108.6c0,0.6,0,1.2,0,1.8c0,0.4-0.1,0.7-0.2,1.2c-1.1,0-2.2,0.1-3.3,0.1c-15.6,0-31.2,0-46.8,0
	c-1.7,0-3.3,0.1-5,0.4c-3.6,0.7-6.6,2.5-9.2,5c-9.8,9.5-19.6,19-29.4,28.5c-7.4,7.2-14.8,14.4-22.2,21.6c-1.8,1.8-3.9,2.6-6.5,2.4
	c-6.2-0.5-12.2,0.4-18,2.7c-19.3,7.7-29.1,28.4-23.4,47.7c5.7,19.1,24.5,30.8,44.3,27.9c6.8-1,13.1-3.6,18.5-7.9
	c8.9-6.9,13.9-16,15.2-27.1c0.6-5.3,0.1-10.6-1.6-15.8c-1-3.2-0.2-6,2-8.5c0.4-0.4,0.9-0.8,1.3-1.3c12.6-12.2,25.3-24.5,37.9-36.7
	c0.6-0.6,1.2-1.1,1.7-1.7c0.4-0.4,0.9-0.6,1.4-0.6c0.5,0,1.1,0,1.6,0c8.7,0,17.3,0,26,0c4.4,0,8.8,0,13.2,0c0.7,0,1.5-0.1,2.2,0.2
	c0.3,0.9,0.2,1.9,0.2,2.8c0,30.3,0,60.5,0,90.8c0,0.5,0,1.1,0,1.6c-0.3,2.8-1.3,5.2-3.8,6.9c-13.3,9-20,25.2-16.3,41.5
	c3.8,17,18.2,28.8,34.3,30.4c0.7,0.1,1.3,0.3,1.9,0.4c1.5,0,2.9,0,4.4,0c0.6-0.1,1.3-0.4,1.9-0.4c14.6-1.4,29.2-11.7,33.8-28.7
	c4.6-16.9-2.1-33.9-15.9-43.2c-2.5-1.7-3.5-4-3.8-6.9c-0.1-0.6,0-1.2,0-1.8c0-30.3,0-60.7,0-91c0-38.1,0-76.3,0-114.4
	c0-12.3,0-24.5,0-36.8c0-0.9-0.1-1.9,0.3-2.9c0.4-0.1,0.9-0.2,1.3-0.2c7.3,0,14.5,0,21.8,0c0.5,0,0.9,0.1,1.5,0.1
	c0.1,0.5,0.2,0.9,0.2,1.4c0,0.8,0,1.6,0,2.4c0,50.1,0,100.3,0,150.4c0,1.7,0,3.5,0.4,5.2c0.8,3.7,2.6,6.8,5.3,9.4
	c2.1,2,4.2,3.9,6.3,5.8c10.6,9.7,21.2,19.5,31.8,29.2c1.2,1.1,2.1,2.4,2.7,3.9c0.4,1,0.5,2,0.2,3.1c-1,3.9-1.3,7.9-1.1,11.9
	c0.4,7.7,2.9,14.7,7.4,21c6.3,8.6,14.7,13.9,25.1,15.7c21.8,3.7,41.2-10.6,45.4-30.7c4.5-21.4-8.9-41.3-28.6-46.4
	c-4.3-1.1-8.6-1.6-13.1-1.2c-0.9,0.1-1.9,0.2-2.8,0.2c-3.4,0.2-6.3-0.7-8.8-3c-3.3-3.1-6.7-6.1-10-9.2c-7.4-6.8-14.7-13.5-22.1-20.3
	c-0.3-0.3-0.6-0.5-0.9-0.8c-0.5-0.4-0.7-0.9-0.7-1.6c0-0.4,0-0.8,0-1.2c0-18.5,0-36.9,0-55.4c0-0.7,0.1-1.4,0.1-2.3
	c0.5-0.1,0.9-0.2,1.2-0.2c0.3,0,0.7,0,1,0c29.4,0,58.8,0,88.1,0c1,0,2,0.1,3,0.4c2.3,0.6,4.2,1.9,5.6,4c5.5,7.8,12.8,13,22.1,15.5
	c22.2,6,44.5-8.1,48.9-30.3c4.2-21-8.9-41.7-30.2-46.4c-15.7-3.5-31.7,3-40.7,15.9c-0.4,0.5-0.7,1.1-1.1,1.6c-0.8,1.1-1.9,1.7-3.3,2
	c-2.7,0.5-5.4,0.6-8.2,0.6c-28,0-56,0-83.9,0c-0.7,0-1.4-0.1-2.2-0.1c-0.1-0.5-0.2-0.9-0.2-1.2c0-0.5,0-0.9,0-1.4
	c0-15.1,0-30.3,0-45.4c0-0.8,0-1.6,0.1-2.5c0.5-0.1,0.8-0.2,1.2-0.2c0.8,0,1.6,0,2.4,0c50.5,0,101,0,151.5,0c2.1,0,4.1-0.1,6.1-0.7
	c5.8-1.7,9.9-5.4,12.2-10.9c0.5-1.2,0.9-2.5,0.9-3.9c0-0.7,0.1-1.3,0.5-1.9c0-0.7,0-1.3,0-2c-0.5-0.6-0.4-1.2-0.5-1.9
	C536.6,424.1,536.5,423.4,536.4,422.7z M499.2,237c0.5,0.6,0.1,1.1,0,1.6c-4.4,15.7-13.9,26.9-29.2,32.9c-5.2,2-10.6,3.1-16.1,3.3
	c-9.8,0.4-19.1-1.5-27.6-6.3c-10.5-5.9-17.6-14.7-21.6-26c-0.5-1.5-0.9-3-1.4-4.6c-0.1-0.2,0-0.5,0-0.9c0.3-0.1,0.6-0.2,1-0.2
	c0.6,0,1.2,0,1.8,0c30.2,0,60.4,0,90.7,0C497.6,236.9,498.4,236.8,499.2,237z M430.5,202.1c0.2-0.4,0.4-0.7,0.6-1
	c6.4-10,12.7-20,19.1-30c0.4-0.6,0.7-1.1,1.2-1.8c0.4,0.3,0.6,0.4,0.7,0.5c7.1,10.8,14.1,21.6,21.2,32.4c0.1,0.2,0.1,0.4,0.1,0.5
	c-0.2,0.4-0.6,0.4-0.9,0.4c-0.4,0-0.8,0-1.2,0c-13,0-26,0-38.9,0c-0.7,0-1.3,0-2.1-0.1C430.4,202.7,430.4,202.3,430.5,202.1z
	 M92.2,201.8c7-11.1,14.1-22.1,21.1-33.2c0.1-0.2,0.3-0.3,0.4-0.4c0,0,0.1,0,0.2,0c0.6,0.4,0.9,1.1,1.3,1.7
	c7.1,10.9,14.1,21.7,21.2,32.6c0.1,0.1,0,0.2-0.1,0.4c-0.2,0.1-0.3,0.2-0.5,0.2c-14.5,0-29,0-43.5,0c-0.2,0-0.4-0.1-0.7-0.3
	C91.9,202.4,92,202.1,92.2,201.8z M162.5,237.1C162.5,237.1,162.5,237.1,162.5,237.1C162.5,237.1,162.5,237.1,162.5,237.1
	c0,0.5,0,0.9-0.1,1.3c-5,17.9-16.3,29.6-34.2,34.7c-6.2,1.8-12.6,2.2-19,1.6c-11.8-1.2-22.1-5.8-30.5-14.3
	c-6-6.1-9.9-13.5-12.1-21.7c-0.1-0.4-0.2-0.9-0.3-1.6c0,0,0,0,0,0c0,0,0,0,0,0c0.7-0.1,1.2-0.1,1.8-0.1
	C89.5,236.6,160.4,236.7,162.5,237.1z M82.6,534.1c-9.3,0.1-16-7.3-15.9-15.8c0.1-10,8.2-15.9,15.7-15.8c8.9-0.1,15.9,7.1,15.9,15.8
	C98.3,526.7,91.7,534.1,82.6,534.1z M147.2,671.3c-2.8,1.8-5.8,2.7-9.1,2.6c-5.8-0.2-10.4-2.6-13.6-7.4c-3.6-5.4-3.3-13.1,1-18.3
	c6.4-7.7,18.4-8,25-0.6C157.3,655.3,155.2,666.2,147.2,671.3z M282.3,748.3c-8.3,0.1-15.8-6.7-15.8-15.7c0-8.9,7.1-15.8,15.7-15.9
	c8.8,0,16,7,15.9,15.9C297.9,742.9,289.3,748.6,282.3,748.3z M410.5,650.9c8.2-0.1,15.9,6.5,15.8,15.9c0,9.1-7.2,15.8-15.7,15.8
	c-9.8,0-15.9-7.9-15.9-15.9C394.9,656.9,402.9,650.8,410.5,650.9z M493.7,499.6c8-0.1,15.8,6.4,15.7,15.8
	c-0.1,10.1-8.6,15.9-16,15.8c-8.7-0.1-15.7-7.4-15.6-15.9C477.9,506.1,485.6,499.4,493.7,499.6z"/>

</svg>
